HIERARCHY
ROOT Hips
{
	OFFSET 0.000000 0.000000 0.000000
	CHANNELS 6 Xposition Yposition Zposition Xrotation Yrotation Zrotation
	JOINT LeftUpLeg_virtual
	{
		OFFSET 0.000000 0.000000 0.000000
		CHANNELS 3 Xrotation Yrotation Zrotation
		JOINT LeftUpLeg
		{
			OFFSET 11.394100 -6.187798 -0.413800
			CHANNELS 3 Xrotation Yrotation Zrotation
			JOINT LeftLeg
			{
				OFFSET 0.430247 -32.302673 3.732800
				CHANNELS 3 Xrotation Yrotation Zrotation
				JOINT LeftFoot
				{
					OFFSET -0.430247 -48.264931 -6.423300
					CHANNELS 3 Xrotation Yrotation Zrotation
					JOINT LeftToeBase
					{
						OFFSET 4.230900 -16.068199 23.438400
						CHANNELS 3 Xrotation Yrotation Zrotation
						JOINT LeftToe_End
						{
							OFFSET 4.510700 0.695400 19.974600
							CHANNELS 3 Xrotation Yrotation Zrotation
							End Site
							{
								OFFSET 0 0 0
							}
						}
					}
				}
			}
		}
	}
	JOINT RightUpLeg_virtual
	{
		OFFSET 0.000000 0.000000 0.000000
		CHANNELS 3 Xrotation Yrotation Zrotation
		JOINT RightUpLeg
		{
			OFFSET -11.333700 -6.187798 -0.413800
			CHANNELS 3 Xrotation Yrotation Zrotation
			JOINT RightLeg
			{
				OFFSET -0.430392 -32.302628 3.733000
				CHANNELS 3 Xrotation Yrotation Zrotation
				JOINT RightFoot
				{
					OFFSET 0.430392 -48.264973 -6.423500
					CHANNELS 3 Xrotation Yrotation Zrotation
					JOINT RightToeBase
					{
						OFFSET -4.230900 -16.068199 23.438400
						CHANNELS 3 Xrotation Yrotation Zrotation
						JOINT RightToe_End
						{
							OFFSET -4.510700 0.695400 19.974600
							CHANNELS 3 Xrotation Yrotation Zrotation
							End Site
							{
								OFFSET 0 0 0
							}
						}
					}
				}
			}
		}
	}
	JOINT Spine_virtual
	{
		OFFSET 0.000000 0.000000 0.000000
		CHANNELS 3 Xrotation Yrotation Zrotation
		JOINT Spine
		{
			OFFSET -0.002400 12.777504 0.315300
			CHANNELS 3 Xrotation Yrotation Zrotation
			JOINT Spine1
			{
				OFFSET -0.002067 5.816869 0.032633
				CHANNELS 3 Xrotation Yrotation Zrotation
				JOINT Spine1_split
				{
					OFFSET -0.002067 5.816869 0.032633
					CHANNELS 3 Xrotation Yrotation Zrotation
					JOINT Spine2
					{
						OFFSET -0.002067 5.816869 0.032633
						CHANNELS 3 Xrotation Yrotation Zrotation
						JOINT Neck_virtual
						{
							OFFSET 0.000000 0.000000 0.000000
							CHANNELS 3 Xrotation Yrotation Zrotation
							JOINT Neck
							{
								OFFSET -0.003700 21.199493 -0.826900
								CHANNELS 3 Xrotation Yrotation Zrotation
								JOINT Head
								{
									OFFSET 0.000000 20.442200 4.834800
									CHANNELS 3 Xrotation Yrotation Zrotation
									JOINT HeadTop_End
									{
										OFFSET 0.000000 34.668396 4.968400
										CHANNELS 3 Xrotation Yrotation Zrotation
										End Site
										{
											OFFSET 0 0 0
										}
									}
								}
							}
						}
						JOINT LeftShoulder_virtual
						{
							OFFSET 0.000000 0.000000 0.000000
							CHANNELS 3 Xrotation Yrotation Zrotation
							JOINT LeftShoulder
							{
								OFFSET 3.288150 8.794197 -1.372250
								CHANNELS 3 Xrotation Yrotation Zrotation
								JOINT LeftShoulder_split
								{
									OFFSET 3.288150 8.794197 -1.372250
									CHANNELS 3 Xrotation Yrotation Zrotation
									JOINT LeftArm
									{
										OFFSET 11.953299 -2.279007 -0.146200
										CHANNELS 3 Xrotation Yrotation Zrotation
										JOINT LeftForeArm
										{
											OFFSET 18.448900 0.000000 0.000000
											CHANNELS 3 Xrotation Yrotation Zrotation
											JOINT LeftHand
											{
												OFFSET 29.527798 0.000000 0.000000
												CHANNELS 3 Xrotation Yrotation Zrotation
												End Site
												{
													OFFSET 0 0 0
												}
											}
										}
									}
								}
							}
						}
						JOINT RightShoulder_virtual
						{
							OFFSET 0.000000 0.000000 0.000000
							CHANNELS 3 Xrotation Yrotation Zrotation
							JOINT RightShoulder
							{
								OFFSET -3.249400 8.794197 -1.372250
								CHANNELS 3 Xrotation Yrotation Zrotation
								JOINT RightShoulder_split
								{
									OFFSET -3.249400 8.794197 -1.372250
									CHANNELS 3 Xrotation Yrotation Zrotation
									JOINT RightArm
									{
										OFFSET -11.953299 -2.279007 -0.146200
										CHANNELS 3 Xrotation Yrotation Zrotation
										JOINT RightForeArm
										{
											OFFSET -18.448900 0.000000 0.000000
											CHANNELS 3 Xrotation Yrotation Zrotation
											JOINT RightHand
											{
												OFFSET -29.527802 0.000000 0.000000
												CHANNELS 3 Xrotation Yrotation Zrotation
												End Site
												{
													OFFSET 0 0 0
												}
											}
										}
									}
								}
							}
						}
					}
				}
			}
		}
	}
}
MOTION
Frames: 6
Frame Time: 0.03333333
0.646304 74.169769 0.525616 0.000000 0.000000 0.000000 26.123848 -13.391490 -2.093970 -107.455179 -6.855782 2.775433 55.640142 15.495573 -7.620729 36.161139 24.207929 1.347538 -7.371390 1.525198 2.311463 0.000000 0.000000 0.000000 25.095404 -11.470900 -3.834133 8.193907 -12.182376 1.619837 58.551462 -0.035269 3.180059 -21.889624 -18.215129 30.907258 -41.086846 2.157737 3.901682 0.000000 0.000000 0.000000 19.761032 -11.687112 -5.428825 10.271153 14.265214 -10.248558 1.314009 4.189583 -0.688297 0.408364 1.467101 0.370898 0.000000 0.000000 0.000000 1.870679 4.432986 -0.730213 -0.806386 -4.024206 3.828610 -3.357017 -9.085088 12.026443 0.000000 0.000000 0.000000 2.759870 4.232465 -0.771729 1.634743 2.461974 -15.721830 -1.115663 -0.369144 -1.977684 -4.298834 24.574973 -35.929858 1.640822 -21.249890 -0.764343 0.000000 0.000000 0.000000 2.660227 4.159805 -0.652054 3.759887 11.938797 -6.276335 0.903063 0.420074 2.280264 -46.916631 65.501712 14.554739 -170.897029 76.619587 168.844093 0.000000 0.000000 0.000000 
-0.324490 74.033356 3.060566 0.000000 0.000000 0.000000 26.901036 -13.387975 -2.266877 -107.823060 -6.887575 3.306212 55.851123 14.675133 -7.408315 35.514077 24.031379 1.292113 -7.265621 1.529315 2.267671 0.000000 0.000000 0.000000 26.398550 -10.160406 -4.299130 7.298261 -12.651647 0.314504 56.778331 0.345824 3.453145 -19.380930 -17.508346 30.579375 -41.582185 1.370089 5.375474 0.000000 0.000000 0.000000 21.134909 -11.094583 -5.434318 10.740208 13.811587 -10.652447 1.595857 4.003347 -0.662857 0.615782 1.124028 0.237969 0.000000 0.000000 0.000000 2.041464 4.326747 -0.772757 -0.795991 -3.507647 3.640417 -3.381179 -9.501096 11.974113 0.000000 0.000000 0.000000 2.951007 4.027864 -0.756099 1.600041 1.600555 -16.057273 -1.698586 -1.230566 -2.306751 -6.319414 23.297010 -35.662508 1.786819 -22.907234 -0.734826 0.000000 0.000000 0.000000 2.703445 3.974802 -0.568348 3.803062 12.291982 -6.070853 0.944392 0.180024 2.261244 -44.282787 64.550069 11.707991 -169.354800 77.148059 167.548816 0.000000 0.000000 0.000000 
-2.175475 73.809601 6.218826 0.000000 0.000000 0.000000 28.431824 -12.948878 -2.306046 -109.127503 -7.166465 3.952257 57.461084 13.055751 -7.045189 33.384967 23.727505 1.326737 -7.559346 1.508237 2.132920 0.000000 0.000000 0.000000 28.653743 -8.217095 -4.641639 3.713520 -12.618909 -2.267276 55.320680 0.463349 3.600215 -14.748327 -16.937981 29.098354 -41.773075 -0.543088 9.443739 0.000000 0.000000 0.000000 23.610574 -10.459663 -5.277080 11.765500 12.735961 -11.258733 1.712815 3.736893 -0.794056 1.073534 0.962434 -0.035058 0.000000 0.000000 0.000000 2.112250 4.155254 -0.981306 -1.130135 -2.934545 3.417203 -3.846753 -10.265227 12.056736 0.000000 0.000000 0.000000 2.887635 3.753837 -0.878223 1.469023 0.366369 -17.009586 -2.485252 -1.396571 -2.890507 -9.151776 21.491998 -34.340654 2.166681 -26.465166 -0.414205 0.000000 0.000000 0.000000 2.543975 3.670674 -0.666812 3.805903 12.880917 -5.469437 0.682397 0.275679 2.165558 -38.596678 61.932276 6.255627 -169.110634 76.288015 167.413360 0.000000 0.000000 0.000000 
-4.399956 73.538628 9.426811 0.000000 0.000000 0.000000 30.460195 -12.086862 -2.249131 -111.032655 -7.431575 4.658023 60.003424 10.952214 -6.597431 30.126264 23.195380 1.400245 -8.477668 1.417072 2.181223 0.000000 0.000000 0.000000 31.359249 -6.200617 -4.795217 -2.649022 -12.193214 -5.848345 54.957147 0.283636 3.613366 -9.308540 -17.089500 26.365324 -41.250443 -2.953744 14.494725 0.000000 0.000000 0.000000 26.811078 -9.800649 -4.987137 13.104498 11.239203 -11.938821 1.637038 3.415838 -1.021309 1.465246 0.815664 -0.085175 0.000000 0.000000 0.000000 2.086621 3.924411 -1.269436 -1.789103 -2.382605 3.118248 -4.723111 -11.263720 12.194754 0.000000 0.000000 0.000000 2.662304 3.451192 -1.100559 1.260576 -0.970802 -18.496694 -3.315524 -0.894375 -3.522462 -11.756809 19.492323 -32.455638 2.680297 -31.161270 0.132304 0.000000 0.000000 0.000000 2.229737 3.300780 -0.901416 3.815467 13.583211 -4.641705 0.297376 0.670227 2.027389 -32.362249 58.135708 0.820743 -170.159396 74.051695 168.467996 0.000000 0.000000 0.000000 
-6.632824 73.367538 12.632996 0.000000 0.000000 0.000000 32.662002 -10.933416 -2.204781 -113.155095 -7.438139 5.460481 62.826313 8.631863 -6.122854 26.424279 22.494781 1.269737 -9.663329 1.220656 2.549104 0.000000 0.000000 0.000000 33.969024 -4.699585 -4.707908 -11.903247 -11.636665 -10.197548 56.039062 -0.031037 3.554944 -3.796535 -17.845010 23.375887 -40.340733 -4.850901 18.393462 0.000000 0.000000 0.000000 30.151696 -9.065177 -4.666091 14.597586 9.542935 -12.591955 1.435117 3.114694 -1.285365 1.679737 0.762836 0.068801 0.000000 0.000000 0.000000 1.974326 3.656651 -1.551161 -2.588915 -1.946055 2.786786 -5.859111 -12.227419 12.239595 0.000000 0.000000 0.000000 2.375292 3.160296 -1.341976 0.998545 -2.255603 -20.337995 -3.952826 -0.286654 -3.962326 -13.485958 17.426328 -30.379110 3.136586 -36.486881 0.767938 0.000000 0.000000 0.000000 1.861381 2.933800 -1.180299 3.838039 14.300435 -3.810546 0.024309 1.207469 1.866734 -26.934667 53.953338 -3.311877 -171.747443 70.839505 169.982385 0.000000 0.000000 0.000000 
-8.706767 73.461052 15.938047 0.000000 0.000000 0.000000 34.957718 -9.635070 -2.291104 -115.082458 -6.937874 6.547026 65.300659 6.447007 -5.708611 22.518377 21.883696 0.935338 -10.310349 0.933597 3.205541 0.000000 0.000000 0.000000 36.193353 -4.119423 -4.375468 -23.052443 -11.264058 -14.997258 58.499785 -0.176362 3.505724 1.242027 -18.685048 20.889261 -39.230599 -5.539110 19.627604 0.000000 0.000000 0.000000 33.338450 -8.297343 -4.485892 16.026241 7.904014 -13.121808 1.232706 2.885398 -1.543220 1.459608 0.817079 0.211523 0.000000 0.000000 0.000000 1.857503 3.368630 -1.792582 -3.348587 -1.636525 2.527339 -7.011832 -12.998619 12.100338 0.000000 0.000000 0.000000 2.108509 2.907982 -1.562461 0.701072 -3.452467 -22.146000 -4.150922 0.345377 -4.071209 -14.156133 15.514059 -28.535241 3.309064 -41.690645 1.300812 0.000000 0.000000 0.000000 1.535785 2.613936 -1.435394 3.889858 15.046987 -3.048272 -0.263074 1.757434 1.837388 -22.796484 50.104188 -5.841813 -173.251846 67.537880 171.391016 0.000000 0.000000 0.000000 
